<?xml version="1.0" encoding="utf-8"?>
<!-- Generator: Adobe Illustrator 22.0.1, SVG Export Plug-In . SVG Version: 6.00 Build 0)  -->
<!DOCTYPE svg PUBLIC "-//W3C//DTD SVG 1.1//EN" "http://www.w3.org/Graphics/SVG/1.1/DTD/svg11.dtd">
<svg version="1.1" id="Layer_1" xmlns="http://www.w3.org/2000/svg" xmlns:xlink="http://www.w3.org/1999/xlink" x="0px" y="0px"
	 viewBox="0 0 48 48" style="enable-background:new 0 0 48 48;" xml:space="preserve">
<path d="M24.6,22.3c0.7,0.9,1.5,1.9,2.4,2.9h-0.1c-1.2,0.1-2.9,0.4-4.9,0.8c0.8-1.5,1.5-3.1,2.1-4.5C24.2,21.8,24.3,22.1,24.6,22.3z M23.8,14.5c0.2-3.1-0.3-3.9-0.4-4c-0.1,0-0.3,0.3-0.5,0.8c-0.5,1.4-0.2,3.4,0.5,5.3C23.6,15.7,23.8,15,23.8,14.5z M12.8,34.6 C12.8,34.6,12.8,34.6,12.8,34.6c0.4,0,0.7-0.1,1-0.4c0.7-0.5,2-2,3.3-4.2c-1.1,0.5-2,1.2-2.7,1.9C12.9,33.5,12.7,34.4,12.8,34.6z M40.7,41c-4.4,4.4-10.3,6.8-16.6,6.8c-6.5,0-12.4-2.4-16.9-7C2.7,36.3,0.3,30.4,0.3,24c0.1-6.3,2.5-12.2,7.1-16.7 C11.8,2.9,17.7,0.5,24,0.5c6.4,0,12.3,2.5,16.9,7C50.1,16.9,50,31.9,40.7,41z M38.9,27.7c-1-1.7-3.9-2.6-8.2-2.6c-0.3,0-0.6,0-1,0 c-1.2-1.3-2.4-2.8-3.4-4.1c-0.5-0.6-1-1.2-1.4-1.8v0c0.6-1.9,1-3.4,1.1-4.5c0.2-2.9-0.1-4.8-1-5.7c-0.6-0.6-1.5-0.9-2.3-0.6 c-0.6,0.2-1.4,0.7-1.9,2.1c-0.7,2.1-0.4,5.9,1.6,8.9c-0.9,2.3-2.1,4.9-3.4,7.4c-2.5,0.9-4.6,2.1-6.1,3.5c-1.9,1.9-2.7,3.7-2.1,5.1 c0.4,0.9,1.1,1.4,2.1,1.4c0.7,0,1.4-0.2,2.1-0.7c1.8-1.2,4.2-5.1,5.4-7.4c2.6-0.8,5.2-1.1,6.5-1.3c0.6,0,1.2-0.1,1.8-0.1 c2.3,2.4,4.2,3.7,5.9,4c0.4,0,0.7,0.1,1,0.1c1.4,0,2.6-0.5,3.1-1.5C39.3,29.2,39.3,28.4,38.9,27.7z M31.9,27.3 c1.3,1.1,2.3,1.7,3.2,1.9c0.2,0,0.5,0,0.6,0c0.7,0,1.1-0.2,1.2-0.4c0,0,0,0,0-0.1C36.7,28.2,35.3,27.4,31.9,27.3z"/>
</svg>
