<?xml version="1.0" encoding="utf-8"?>
<!-- Generator: Adobe Illustrator 22.0.1, SVG Export Plug-In . SVG Version: 6.00 Build 0)  -->
<!DOCTYPE svg PUBLIC "-//W3C//DTD SVG 1.1//EN" "http://www.w3.org/Graphics/SVG/1.1/DTD/svg11.dtd">
<svg version="1.1" id="Layer_1" xmlns="http://www.w3.org/2000/svg" xmlns:xlink="http://www.w3.org/1999/xlink" x="0px" y="0px"
	 viewBox="0 0 48 48" style="enable-background:new 0 0 48 48;" xml:space="preserve">
<path d="M40.9,7.5c-4.6-4.5-10.5-7-16.9-7c-6.3,0-12.2,2.4-16.6,6.8c-4.6,4.5-7,10.4-7.1,16.7c0,6.4,2.4,12.3,6.9,16.8 c4.5,4.6,10.4,7,16.9,7c6.3,0,12.2-2.4,16.6-6.8C50,31.9,50.1,16.9,40.9,7.5z M38.4,38.8c-3.8,3.8-8.9,6-14.4,6s-10.7-2.1-14.6-6.1 c-3.9-4-6-9-6-14.6c0-5.4,2.2-10.6,6.1-14.5c3.9-3.9,8.9-6,14.4-6s10.7,2.1,14.6,6.1C46.6,17.8,46.5,30.8,38.4,38.8z M36.8,26.7 c-0.8-1.5-3.3-2.3-7.1-2.3H29c-1-1.2-2.1-2.4-2.8-3.3L26,20.8c-0.3-0.4-0.6-0.7-0.8-1.1c0.5-1.5,0.8-2.8,0.9-3.7 c0.2-2.5-0.1-4.1-0.9-4.9c-0.6-0.6-1.4-0.8-2.2-0.6c-0.5,0.1-1.3,0.6-1.7,1.9c-0.6,1.7-0.4,4.8,1.3,7.6c-0.7,1.8-1.7,3.9-2.8,5.9 c-2.1,0.8-3.8,1.7-5.1,2.9c-1.7,1.6-2.3,3.3-1.8,4.5c0.3,0.8,1.1,1.3,2,1.3c0.6,0,1.3-0.2,1.9-0.6c1.4-0.9,3.3-3.8,4.6-6.2 c1.5-0.5,3.3-0.8,5.3-1l1.4-0.1c1.9,2,3.5,3.1,5,3.4l0.1,0c0.3,0,0.5,0.1,0.8,0.1c1.3,0,2.3-0.5,2.8-1.4 C37.1,28.1,37.1,27.4,36.8,26.7z M34.7,27.7c-0.1,0.1-0.3,0.1-0.7,0.1c-0.1,0-0.3,0-0.5,0c-0.6-0.1-1.2-0.5-2-1 C33.5,27,34.4,27.5,34.7,27.7z M15.1,32.3c0.1-0.3,0.4-0.9,1.2-1.8c0.4-0.4,0.9-0.7,1.3-1c-0.9,1.4-1.7,2.3-2.1,2.6 C15.3,32.2,15.2,32.3,15.1,32.3z M24.2,22.2c0.1,0.1,0.2,0.2,0.3,0.3c0.5,0.6,1.1,1.3,1.7,2c-0.9,0.1-2.1,0.3-3.3,0.5 C23.3,24,23.8,23.1,24.2,22.2z M23.7,15.8c0,0.2-0.1,0.5-0.1,0.8c-0.4-1.3-0.4-2.6-0.1-3.5c0-0.1,0.1-0.2,0.1-0.3 C23.7,13.3,23.9,14.1,23.7,15.8z"/>
</svg>
