<?xml version="1.0" encoding="utf-8"?>
<!-- Generator: Adobe Illustrator 22.0.1, SVG Export Plug-In . SVG Version: 6.00 Build 0)  -->
<!DOCTYPE svg PUBLIC "-//W3C//DTD SVG 1.1//EN" "http://www.w3.org/Graphics/SVG/1.1/DTD/svg11.dtd">
<svg version="1.1" id="Layer_1" xmlns="http://www.w3.org/2000/svg" xmlns:xlink="http://www.w3.org/1999/xlink" x="0px" y="0px"
	 viewBox="0 0 100 100" style="enable-background:new 0 0 100 100;" xml:space="preserve">
<path d="M50,0.8C22.5,1,0.6,23.2,0.8,50.3c0,5,0.9,10,2.3,14.5c0,0.7,0.2,1.3,0.7,1.9c6.9,18.9,25,32.5,46.3,32.5h0.3 C63.5,99.1,75.8,94,85,84.6s14.3-21.8,14.2-34.9C99,22.8,77,0.8,50,0.8z M69.6,16c0,2.8-2.3,5.1-5.1,5.1c-2.8,0-5.1-2.3-5.1-5.1 s2.3-5.1,5.1-5.1C67.3,10.8,69.6,13.1,69.6,16z M50.2,92.6H50c-17.9,0-33.4-11.3-39.6-27l26.1-22.6l31.7,45.6 C62.7,91.1,56.6,92.6,50.2,92.6z M80.3,80c-2.1,2.1-4.3,3.8-6.6,5.5l-15.2-22l14.1-12.1l14.1,20.3C84.9,74.6,82.8,77.3,80.3,80z M89.8,65.1l-14-20.3c-0.5-0.8-1.3-1.2-2.2-1.3c-0.9-0.1-1.8,0.1-2.5,0.8l-16.3,14L39.7,36.3c-0.5-0.8-1.3-1.2-2.2-1.3 c-0.9-0.1-1.8,0.1-2.5,0.8L8.3,58.9c-0.5-2.7-0.9-5.7-1-8.6C7.2,26.7,26.2,7.6,49.7,7.3c2.3,0,4.5,0.2,6.6,0.5 C54.2,10,53,12.8,53,16c0,6.3,5.1,11.5,11.5,11.5c6.2,0,11.3-4.9,11.5-11C86,24.2,92.4,36.2,92.6,49.8C92.7,55,91.7,60.2,89.8,65.1z"/>
</svg>
