<?xml version="1.0" encoding="utf-8"?>
<!-- Generator: Adobe Illustrator 22.0.1, SVG Export Plug-In . SVG Version: 6.00 Build 0)  -->
<!DOCTYPE svg PUBLIC "-//W3C//DTD SVG 1.1//EN" "http://www.w3.org/Graphics/SVG/1.1/DTD/svg11.dtd">
<svg version="1.1" id="Layer_1" xmlns="http://www.w3.org/2000/svg" xmlns:xlink="http://www.w3.org/1999/xlink" x="0px" y="0px"
	 viewBox="0 0 100 100" style="enable-background:new 0 0 100 100;" xml:space="preserve">
<path d="M93.9,71.8c3.4-6.7,5.3-14.2,5.3-22.1C99,23.3,76.5,0.8,49.9,0.8c-7.3,0-14.2,1.6-20.5,4.5c-0.8,0.3-1.4,0.7-2.2,1.1 c-15.9,8.2-26.7,24.8-26.6,44c0,5.4,1,10.5,2.5,15.3c0,0.2,0.1,0.4,0.2,0.7c0.1,0.4,0.3,0.8,0.4,1.2C11,86,28.9,99.2,49.8,99.2h0.3 C69.1,99.2,85.8,87.8,93.9,71.8z M64.4,8.5c4.1,0,7.4,3.3,7.4,7.4s-3.3,7.4-7.4,7.4c-4.1,0-7.4-3.3-7.4-7.4S60.3,8.5,64.4,8.5z M10.1,65.9l25.8-22.3c0.2-0.2,0.5-0.2,0.7-0.2c0.1,0,0.4,0.1,0.7,0.3l31.2,45c-5.6,2.7-11.8,4.2-18.3,4.2h-0.2 C32,92.9,16.5,81.7,10.1,65.9z M80.5,80.1c-2,2-4.2,3.8-6.5,5.4L58.6,63.3l13.2-11.5c0.2-0.2,0.5-0.2,0.7-0.2c0.1,0,0.4,0.1,0.7,0.3 l14,19.3C85.4,74.5,83.1,77.5,80.5,80.1z"/>
</svg>
