<?xml version="1.0" encoding="utf-8"?>
<!-- Generator: Adobe Illustrator 22.0.1, SVG Export Plug-In . SVG Version: 6.00 Build 0)  -->
<!DOCTYPE svg PUBLIC "-//W3C//DTD SVG 1.1//EN" "http://www.w3.org/Graphics/SVG/1.1/DTD/svg11.dtd">
<svg version="1.1" id="Layer_1" xmlns="http://www.w3.org/2000/svg" xmlns:xlink="http://www.w3.org/1999/xlink" x="0px" y="0px"
	 viewBox="0 0 100 100" style="enable-background:new 0 0 100 100;" xml:space="preserve">
<path d="M85.2,15.1C75.7,5.8,63.3,0.6,50,0.6c-13,0-25.5,5.2-34.6,14.1C5.9,24.1,0.9,36.5,0.5,49.5c0,13.3,5.2,25.7,14.3,35 C24.1,94.1,36.6,99,50,99c13,0,25.5-5.2,34.6-14.1C104.1,65.9,104.3,34.6,85.2,15.1z M79.2,66.3c0,1.4-1.2,2.7-2.7,2.7 c-17.8,1.2-35.4,1.2-53.2,0c-1.4,0-2.7-1.2-2.7-2.7c-0.6-10.8-0.6-21.7,0-32.7c0-1.4,1.2-2.7,2.7-2.7c7.5-0.5,15-0.8,22.4-0.9 l0,20.8l-6.3-6.3c-1.1-1.1-3-1.1-4.1,0c-1.1,1.1-1.1,3,0,4.1L46.7,60c0.9,1.1,3,1.1,4.1,0l11.9-11.5c1.1-1.1,1.1-3,0-4.1 c-0.6-0.6-1.5-0.8-2.3-0.8c-0.9,0-1.7,0.2-2.3,0.8l-6.4,6.4V30c8.2,0,16.5,0.3,24.8,0.9c1.4,0,2.7,1.2,2.7,2.7 C80.1,44.6,80.1,55.3,79.2,66.3z"/>
</svg>
