<?xml version="1.0" encoding="utf-8"?>
<!-- Generator: Adobe Illustrator 23.1.1, SVG Export Plug-In . SVG Version: 6.00 Build 0)  -->
<svg version="1.1" id="Layer_1" xmlns="http://www.w3.org/2000/svg" xmlns:xlink="http://www.w3.org/1999/xlink" x="0px" y="0px"
	 viewBox="0 0 48 48" style="enable-background:new 0 0 48 48;" xml:space="preserve">
<path d="M40.9,7.5c-4.6-4.5-10.5-7-16.9-7c-6.3,0-12.2,2.4-16.6,6.8c-4.6,4.5-7,10.4-7.1,16.7c0,6.4,2.4,12.3,6.9,16.8
	c4.5,4.6,10.4,7,16.9,7c6.3,0,12.2-2.4,16.6-6.8C50,31.9,50.1,16.9,40.9,7.5z M38.4,38.8c-3.8,3.8-8.9,6-14.4,6s-10.7-2.1-14.6-6.1
	c-3.9-4-6-9-6-14.6c0-5.4,2.2-10.6,6.1-14.5c3.9-3.9,8.9-6,14.4-6s10.7,2.1,14.6,6.1C46.6,17.8,46.5,30.8,38.4,38.8z M13.5,16.7
	C12.9,16,13,15,13.7,14.4s1.7-0.5,2.3,0.2l2.4,2.9c-1.1,0.2-2.2,0.6-3.1,1.3L13.5,16.7z M13.1,25.8h-2.9c-0.9,0-1.6-0.7-1.6-1.6
	c0-0.9,0.7-1.6,1.6-1.6h2.9c-0.1,0.4-0.1,0.8-0.1,1.2v0.7C12.9,24.9,13,25.4,13.1,25.8z M39.6,24.2c0,0.9-0.7,1.6-1.6,1.6h-3.2
	c0.1-0.4,0.2-0.9,0.2-1.4v-0.7c0-0.4,0-0.8-0.1-1.2H38C38.9,22.6,39.6,23.4,39.6,24.2z M32.8,19c-0.9-0.7-1.9-1.2-3.1-1.4l2.5-2.6
	c0.6-0.6,1.6-0.6,2.3,0s0.6,1.6,0,2.3L32.8,19z M25.6,17.5h-3.2V14c0-0.9,0.7-1.6,1.6-1.6s1.6,0.7,1.6,1.6V17.5z M34.7,31.1
	c0.6,0.7,0.5,1.7-0.2,2.3s-1.7,0.5-2.3-0.2l-2.1-2.5c1.1-0.3,2.1-0.8,2.9-1.6L34.7,31.1z M15.3,29.3c0.9,0.7,2,1.2,3.2,1.4l-2.8,2.9
	c-0.6,0.6-1.6,0.6-2.3,0c-0.6-0.6-0.6-1.6,0-2.3L15.3,29.3z M23,30.8h3.2v3.7c0,0.9-0.7,1.6-1.6,1.6S23,35.3,23,34.4V30.8z M28,29
	h-8.1c-2.6,0-4.8-2.2-4.8-4.8c0-2.6,2.2-4.8,4.8-4.8H28c2.6,0,4.8,2.2,4.8,4.8C32.8,26.8,30.7,29,28,29z"/>
</svg>
