<?xml version="1.0" encoding="utf-8"?>
<!-- Generator: Adobe Illustrator 22.0.1, SVG Export Plug-In . SVG Version: 6.00 Build 0)  -->
<!DOCTYPE svg PUBLIC "-//W3C//DTD SVG 1.1//EN" "http://www.w3.org/Graphics/SVG/1.1/DTD/svg11.dtd">
<svg version="1.1" id="Layer_1" xmlns="http://www.w3.org/2000/svg" xmlns:xlink="http://www.w3.org/1999/xlink" x="0px" y="0px"
	 viewBox="0 0 48 48" style="enable-background:new 0 0 48 48;" xml:space="preserve">
<path d="M40.9,7.5c-4.6-4.5-10.5-7-16.9-7c-6.3,0-12.2,2.4-16.6,6.8c-4.6,4.5-7,10.4-7.1,16.7c0,6.4,2.4,12.3,6.9,16.8 c4.5,4.6,10.4,7,16.9,7c6.3,0,12.2-2.4,16.6-6.8C50,31.9,50.1,16.9,40.9,7.5z M38.4,38.8c-3.8,3.8-8.9,6-14.4,6 c-5.5,0-10.7-2.1-14.6-6.1s-6-9-6-14.6c0-5.4,2.2-10.6,6.1-14.5s8.9-6,14.4-6c5.5,0,10.7,2.1,14.6,6.1 C46.6,17.8,46.5,30.8,38.4,38.8z M17.8,15.5c3.2,0,5.7,3,5.7,7c0,5.2-4.8,10.4-9.8,10.4c-0.7,0-1.4-0.6-1.4-1.2 c0-2.6,3.7-0.8,4.6-6.5c-2.7-0.7-4.3-2.4-4.3-4.6C12.7,17.9,15,15.5,17.8,15.5z M30.3,15.5c3.2,0,5.7,3,5.7,7 c0,5.2-4.8,10.4-9.8,10.4c-0.7,0-1.4-0.6-1.4-1.2c0-2.6,3.7-0.8,4.6-6.5c-2.7-0.7-4.3-2.4-4.3-4.6C25.1,17.9,27.5,15.5,30.3,15.5z"/>
</svg>
