<?xml version="1.0" encoding="utf-8"?>
<!-- Generator: Adobe Illustrator 22.0.1, SVG Export Plug-In . SVG Version: 6.00 Build 0)  -->
<!DOCTYPE svg PUBLIC "-//W3C//DTD SVG 1.1//EN" "http://www.w3.org/Graphics/SVG/1.1/DTD/svg11.dtd">
<svg version="1.1" id="Layer_1" xmlns="http://www.w3.org/2000/svg" xmlns:xlink="http://www.w3.org/1999/xlink" x="0px" y="0px"
	 viewBox="0 0 100 100" style="enable-background:new 0 0 100 100;" xml:space="preserve">
<path d="M50,0.8C22.5,1,0.6,23.2,0.8,50.3c0,5,0.9,10,2.3,14.5c0,0.7,0.2,1.3,0.7,1.9c6.9,18.9,25,32.5,46.3,32.5h0.3 C63.5,99.1,75.8,94,85,84.6c9.2-9.4,14.3-21.8,14.2-34.9C99,22.8,77,0.8,50,0.8z M42.4,23.1l11.4-11.4c0.9-1.1,3-1.1,4.1,0 l11.9,11.5c1.1,1.1,1.1,3,0,4.1c-0.6,0.6-1.5,0.8-2.3,0.8c-0.9,0-1.7-0.2-2.3-0.8L58.9,21v27.8c0,1.7-1.3,3-3,3c-1.7,0-3-1.3-3-3V21 l-6.3,6.3c-1.1,1.1-3,1.1-4.1,0C41.3,26.1,41.3,24.2,42.4,23.1z M50.2,92.6H50c-17.9,0-33.4-11.3-39.6-27L36.5,43l31.7,45.6 C62.7,91.1,56.6,92.6,50.2,92.6z M80.3,80c-2.1,2.1-4.3,3.8-6.6,5.5l-15.2-22l14.1-12.1l14.1,20.3C84.9,74.6,82.8,77.3,80.3,80z"/>
</svg>
