<?xml version="1.0" encoding="utf-8"?>
<!-- Generator: Adobe Illustrator 22.0.1, SVG Export Plug-In . SVG Version: 6.00 Build 0)  -->
<!DOCTYPE svg PUBLIC "-//W3C//DTD SVG 1.1//EN" "http://www.w3.org/Graphics/SVG/1.1/DTD/svg11.dtd">
<svg version="1.1" id="Layer_1" xmlns="http://www.w3.org/2000/svg" xmlns:xlink="http://www.w3.org/1999/xlink" x="0px" y="0px"
	 viewBox="0 0 48 48" style="enable-background:new 0 0 48 48;" xml:space="preserve">
<path d="M41,7.4c-4.6-4.5-10.6-7-17-7c-6.3,0-12.3,2.5-16.7,6.8c-4.6,4.5-7,10.5-7.2,16.8c0,6.4,2.5,12.4,6.9,16.9 c4.5,4.6,10.5,7,17,7c6.3,0,12.3-2.5,16.7-6.8C50.1,31.9,50.2,16.8,41,7.4z M38.1,32.1c0,0.7-0.6,1.3-1.3,1.3 c-8.6,0.6-17.1,0.6-25.7,0c-0.7,0-1.3-0.6-1.3-1.3c-0.3-5.2-0.3-10.5,0-15.8c0-0.7,0.6-1.3,1.3-1.3c8.6-0.6,17.1-0.6,25.7,0 c0.7,0,1.3,0.6,1.3,1.3C38.5,21.6,38.5,26.8,38.1,32.1z M29,24.6L21.3,29c-0.3,0.2-0.6,0-0.6-0.4v-8.9c0-0.3,0.3-0.6,0.6-0.4 l7.7,4.4C29.3,24,29.3,24.4,29,24.6z"/>
</svg>
