<?xml version="1.0" encoding="utf-8"?>
<!-- Generator: Adobe Illustrator 22.0.1, SVG Export Plug-In . SVG Version: 6.00 Build 0)  -->
<!DOCTYPE svg PUBLIC "-//W3C//DTD SVG 1.1//EN" "http://www.w3.org/Graphics/SVG/1.1/DTD/svg11.dtd">
<svg version="1.1" id="Layer_1" xmlns="http://www.w3.org/2000/svg" xmlns:xlink="http://www.w3.org/1999/xlink" x="0px" y="0px"
	 viewBox="0 0 48 48" style="enable-background:new 0 0 48 48;" xml:space="preserve">
<path d="M40.9,7.5c-4.6-4.5-10.5-7-16.9-7c-6.3,0-12.2,2.4-16.6,6.8c-4.6,4.5-7,10.4-7.1,16.7c0,6.4,2.4,12.3,6.9,16.8 c4.5,4.6,10.4,7,16.9,7c6.3,0,12.2-2.4,16.6-6.8C50,31.9,50.1,16.9,40.9,7.5z M38.4,38.8c-3.8,3.8-8.9,6-14.4,6 c-5.5,0-10.7-2.1-14.6-6.1s-6-9-6-14.6c0-5.4,2.2-10.6,6.1-14.5s8.9-6,14.4-6c5.5,0,10.7,2.1,14.6,6.1 C46.6,17.8,46.5,30.8,38.4,38.8z M38.1,16.4c0-0.7-0.6-1.3-1.3-1.3c-8.6-0.6-17-0.6-25.6,0c-0.7,0-1.3,0.6-1.3,1.3 c-0.3,5.2-0.3,10.5,0,15.7c0,0.7,0.6,1.3,1.3,1.3c8.6,0.6,17,0.6,25.6,0c0.7,0,1.3-0.6,1.3-1.3C38.4,26.8,38.4,21.6,38.1,16.4z M29,24.6L21.3,29c-0.3,0.2-0.6,0-0.6-0.4v-8.9c0-0.3,0.3-0.6,0.6-0.4l7.7,4.4C29.3,24,29.3,24.4,29,24.6z"/>
</svg>
