<?xml version="1.0" encoding="utf-8"?>
<!-- Generator: Adobe Illustrator 22.0.1, SVG Export Plug-In . SVG Version: 6.00 Build 0)  -->
<!DOCTYPE svg PUBLIC "-//W3C//DTD SVG 1.1//EN" "http://www.w3.org/Graphics/SVG/1.1/DTD/svg11.dtd">
<svg version="1.1" id="Layer_1" xmlns="http://www.w3.org/2000/svg" xmlns:xlink="http://www.w3.org/1999/xlink" x="0px" y="0px"
	 viewBox="0 0 96 96" style="enable-background:new 0 0 96 96;" xml:space="preserve">
<style type="text/css">
	.st0{fill:#939498;}
</style>
<path class="st0" d="M79.5,13.1H16.5c-2.3,0-4.1,2.2-4.1,5v60.2c0,1.3,0.4,2.6,1.2,3.5c0.7,1,1.8,1.5,2.9,1.5h63.1 c1.1,0,2-0.6,2.9-1.5s1.2-2.2,1.2-3.5V18.1C83.6,15.3,81.8,13.1,79.5,13.1z M79.5,77.3c0,0.3-0.1,0.5-0.2,0.7s-0.3,0.3-0.6,0.3H17.3 c-0.5,0-0.8-0.4-0.8-1V19.4c0-0.3,0.1-0.5,0.2-0.7s0.3-0.3,0.6-0.3h61.4c0.5,0,0.8,0.4,0.8,1V77.3z M63.8,51.3 c-1.2,0-3.1,0.1-5.4,0.6c-2.9-3.1-5.8-7.5-8.2-12.1c2.2-10.2,0.4-12-0.1-12.6c-0.7-0.9-1.8-1.3-2.9-1.3c-0.3,0-0.7,0-1.3,0.1 c-1.2,0.4-2,1.2-2.6,2.5c-1.3,3.2,0.4,8.2,2,11.7c-1.6,5.8-3.9,12.4-6.3,17.7c-6.6,2.9-10.2,6.1-10.5,9.2c-0.1,1-0.1,2.9,2,4.5 c0.6,0.6,1.3,0.9,2.2,0.9c1.6,0,3.4-1.3,5.4-3.9c1.3-1.8,2.8-4.2,4.1-7.2c4.5-1.9,9.8-3.5,14.3-4.5c5,4.5,9.2,4.8,11.8,1.5v-0.1 c0.9-1.5,1.3-2.8,1.3-4.1v-0.3l-0.1-0.3C68.5,52,66.6,51.3,63.8,51.3z M32.7,68.5c-0.9-0.6-0.7-1-0.7-1.2c0.1-1,1.5-2.8,5.3-4.7 C34.6,67.8,32.8,68.4,32.7,68.5z M46.3,29.6c0.1-0.3,0.3-0.4,0.6-0.4c0.1,0.3,0.4,1.9,0,5.4C46.1,32.7,45.8,30.8,46.3,29.6z M43.2,56.7c1.6-4.1,3.4-8.8,4.5-13c1.8,3.5,4.2,7,6.6,9.5C50.6,54,46.5,55.4,43.2,56.7z M65.1,55.8c-0.4,0.7-0.9,0.9-1.3,0.9 c-0.9,0-2.2-0.6-3.5-1.6c1-0.1,1.9-0.1,3.1-0.1c1.5,0,2.2,0.1,2.3,0.3C65.4,55.2,65.3,55.5,65.1,55.8z"/>
</svg>
