<?xml version="1.0" encoding="utf-8"?>
<!-- Generator: Adobe Illustrator 22.0.1, SVG Export Plug-In . SVG Version: 6.00 Build 0)  -->
<!DOCTYPE svg PUBLIC "-//W3C//DTD SVG 1.1//EN" "http://www.w3.org/Graphics/SVG/1.1/DTD/svg11.dtd">
<svg version="1.1" id="Layer_1" xmlns="http://www.w3.org/2000/svg" xmlns:xlink="http://www.w3.org/1999/xlink" x="0px" y="0px"
	 viewBox="0 0 96 96" style="enable-background:new 0 0 96 96;" xml:space="preserve">
<style type="text/css">
	.st0{fill:#939498;}
</style>
<path class="st0" d="M79.5,13.1H16.5c-2.3,0-4.1,2.2-4.1,5v60.2c0,1.3,0.4,2.6,1.2,3.5c0.7,1,1.8,1.5,2.9,1.5h63.1 c1.1,0,2-0.6,2.9-1.5s1.2-2.2,1.2-3.5V18.1C83.6,15.3,81.8,13.1,79.5,13.1z M79.5,77.3c0,0.3-0.1,0.5-0.2,0.7s-0.3,0.3-0.6,0.3H17.3 c-0.5,0-0.8-0.4-0.8-1V19.4c0-0.3,0.1-0.5,0.2-0.7s0.3-0.3,0.6-0.3h61.4c0.5,0,0.8,0.4,0.8,1V77.3z M64.9,35.1c2.8,0,5,2.2,5,5 s-2.2,5-5,5c-2.8,0-5-2.2-5-5C59.8,37.3,62,35.1,64.9,35.1z M48.7,65.2L48.7,65.2l-28.2,0L43,36.4l14,17.7l5-7l13.3,18.1 C75.3,65.2,48.7,65.2,48.7,65.2z"/>
</svg>
