<?xml version="1.0" encoding="utf-8"?>
<!-- Generator: Adobe Illustrator 22.0.1, SVG Export Plug-In . SVG Version: 6.00 Build 0)  -->
<!DOCTYPE svg PUBLIC "-//W3C//DTD SVG 1.1//EN" "http://www.w3.org/Graphics/SVG/1.1/DTD/svg11.dtd">
<svg version="1.1" id="Layer_1" xmlns="http://www.w3.org/2000/svg" xmlns:xlink="http://www.w3.org/1999/xlink" x="0px" y="0px"
	 viewBox="0 0 48 64" style="enable-background:new 0 0 48 64;" xml:space="preserve">
<path d="M46.1,13.4L34.4,1.8c-0.6-0.5-1.3-0.8-2.1-0.8l0,0H3.9C2.3,0.9,1,2.3,1,3.9v55.8c0,0.8,0.3,1.5,0.9,2.1 c0.6,0.6,1.3,0.9,2.1,0.9h40.1c0.8,0,1.5-0.3,2.1-0.9c0.6-0.6,0.9-1.3,0.9-2.1V15.5C47,14.7,46.7,14,46.1,13.4z M42.6,57.5 c0,0.2-0.1,0.4-0.2,0.5c-0.1,0.1-0.3,0.2-0.5,0.2H6.1c-0.4,0-0.7-0.3-0.7-0.7l0,0V6.1c0-0.4,0.3-0.7,0.7-0.7h22.5 c0.2,0,0.4,0.1,0.5,0.2s0.2,0.3,0.2,0.5v9.5c0,0.8,0.3,1.5,0.9,2.1c0.6,0.6,1.3,0.9,2.1,0.9h8.8c0.4,0,0.8,0.2,1,0.4 c0.3,0.3,0.4,0.6,0.4,1V57.5z M35.6,37.6c0,1.2-1,2.2-2.2,2.2h-7.5v7.5c0,1.2-1,2.2-2.2,2.2c-1.2,0-2.2-1-2.2-2.2v-7.5H14 c-1.2,0-2.2-1-2.2-2.2c0-1.2,1-2.2,2.2-2.2h7.5v-7.5c0-1.2,1-2.2,2.2-2.2c1.2,0,2.2,1,2.2,2.2v7.5h7.5 C34.6,35.4,35.6,36.4,35.6,37.6z"/>
</svg>
