<?xml version="1.0" encoding="utf-8"?>
<!-- Generator: Adobe Illustrator 22.0.1, SVG Export Plug-In . SVG Version: 6.00 Build 0)  -->
<!DOCTYPE svg PUBLIC "-//W3C//DTD SVG 1.1//EN" "http://www.w3.org/Graphics/SVG/1.1/DTD/svg11.dtd">
<svg version="1.1" id="Layer_1" xmlns="http://www.w3.org/2000/svg" xmlns:xlink="http://www.w3.org/1999/xlink" x="0px" y="0px"
	 viewBox="0 0 48 64" style="enable-background:new 0 0 48 64;" xml:space="preserve">
<path d="M5.4,57.5V6.1c0-0.4,0.3-0.7,0.7-0.7h22.5c0.2,0,0.4,0.1,0.5,0.2c0.1,0.1,0.2,0.3,0.2,0.5v9.5c0,0.8,0.3,1.5,0.9,2.1 s1.3,0.9,2.1,0.9h8.8c0.4,0,0.8,0.2,1,0.4c0.3,0.3,0.4,0.6,0.4,1v37.5c0,0.2-0.1,0.4-0.2,0.5c-0.1,0.1-0.3,0.2-0.5,0.2H6.1 C5.7,58.2,5.4,57.9,5.4,57.5L5.4,57.5z M32.3,0.9H3.9C2.3,0.9,1,2.3,1,3.9v55.8c0,0.8,0.3,1.5,0.9,2.1s1.3,0.9,2.1,0.9h40.1 c0.8,0,1.5-0.3,2.1-0.9s0.9-1.3,0.9-2.1V15.5c0-0.8-0.3-1.5-0.9-2.1L34.4,1.8C33.8,1.3,33.1,0.9,32.3,0.9L32.3,0.9z"/>
</svg>
