<?xml version="1.0" encoding="utf-8"?>
<!-- Generator: Adobe Illustrator 22.0.1, SVG Export Plug-In . SVG Version: 6.00 Build 0)  -->
<!DOCTYPE svg PUBLIC "-//W3C//DTD SVG 1.1//EN" "http://www.w3.org/Graphics/SVG/1.1/DTD/svg11.dtd">
<svg version="1.1" id="Layer_1" xmlns="http://www.w3.org/2000/svg" xmlns:xlink="http://www.w3.org/1999/xlink" x="0px" y="0px"
	 viewBox="0 0 100 100" style="enable-background:new 0 0 100 100;" xml:space="preserve">
<style type="text/css">
	.st0{fill:#939498;}
	.st1{fill:#FF931E;}
</style>
<path class="st0" d="M97.9,64.4v-1.2c0-1.8-1.6-3.4-3.4-3.4H6.3c-1.8,0-3.4,1.6-3.4,3.4v1.2c0,1.8,1.6,3.4,3.4,3.4h88.1 C96.3,67.9,97.9,66.2,97.9,64.4z M97.9,78.6v-1.2c0-1.8-1.6-3.4-3.4-3.4H6.3c-1.8,0-3.4,1.6-3.4,3.4v1.2c0,1.8,1.6,3.4,3.4,3.4h88.1 C96.3,81.9,97.9,80.4,97.9,78.6z M97.9,92.6v-1.2c0-1.8-1.6-3.4-3.4-3.4H6.3c-1.8,0-3.4,1.6-3.4,3.4v1.2c0,1.8,1.6,3.4,3.4,3.4h88.1 C96.3,95.9,97.9,94.4,97.9,92.6z"/>
<path class="st1" d="M97.5,49.6v-43c0-1.8-1.6-3.4-3.4-3.4H6.3c-1.8,0-3.4,1.6-3.4,3.4v43c0,1.8,1.6,3.4,3.4,3.4H94C95.9,52.8,97.5,51.4,97.5,49.6z"/>
</svg>
