<?xml version="1.0" encoding="utf-8"?>
<!-- Generator: Adobe Illustrator 22.0.1, SVG Export Plug-In . SVG Version: 6.00 Build 0)  -->
<!DOCTYPE svg PUBLIC "-//W3C//DTD SVG 1.1//EN" "http://www.w3.org/Graphics/SVG/1.1/DTD/svg11.dtd">
<svg version="1.1" id="Layer_1" xmlns="http://www.w3.org/2000/svg" xmlns:xlink="http://www.w3.org/1999/xlink" x="0px" y="0px"
	 viewBox="0 0 100 100" style="enable-background:new 0 0 100 100;" xml:space="preserve">
<style type="text/css">
	.st0{fill:#939498;}
	.st1{fill:#FF931E;}
</style>
<path class="st0" d="M6.3,11.1h36.2c1.8,0,3.4-1.6,3.4-3.4V6.4c0-1.8-1.6-3.4-3.4-3.4H6.3C4.5,3,2.9,4.6,2.9,6.4v1.2 C2.9,9.4,4.5,10.9,6.3,11.1z M6.3,25.3h36.2c1.8,0,3.4-1.6,3.4-3.4v-1.2c0-1.8-1.6-3.4-3.4-3.4H6.3c-1.8,0-3.4,1.6-3.4,3.4v1.2 C2.9,23.6,4.5,25.3,6.3,25.3z M6.3,39.5h36.2c1.8,0,3.4-1.6,3.4-3.4v-1.2c0-1.8-1.6-3.4-3.4-3.4H6.3c-1.8,0-3.4,1.6-3.4,3.4V36 C2.9,37.8,4.5,39.3,6.3,39.5z M97.9,50.2V49c0-1.8-1.6-3.4-3.4-3.4H6.3c-1.8,0-3.4,1.6-3.4,3.4v1.2c0,1.8,1.6,3.4,3.4,3.4h88.1 C96.3,53.5,97.9,52,97.9,50.2z M97.9,64.4v-1.2c0-1.8-1.6-3.4-3.4-3.4H6.3c-1.8,0-3.4,1.6-3.4,3.4v1.2c0,1.8,1.6,3.4,3.4,3.4h88.1 C96.3,67.9,97.9,66.2,97.9,64.4z M97.9,78.6v-1.2c0-1.8-1.6-3.4-3.4-3.4H6.3c-1.8,0-3.4,1.6-3.4,3.4v1.2c0,1.8,1.6,3.4,3.4,3.4h88.1 C96.3,81.9,97.9,80.4,97.9,78.6z M97.9,92.6v-1.2c0-1.8-1.6-3.4-3.4-3.4H6.3c-1.8,0-3.4,1.6-3.4,3.4v1.2c0,1.8,1.6,3.4,3.4,3.4h88.1 C96.3,95.9,97.9,94.4,97.9,92.6z"/>
<path class="st1" d="M56.8,39.1h37.7c1.8,0,3.4-1.6,3.4-3.4v-29c0-1.8-1.6-3.4-3.4-3.4H56.8c-1.8,0-3.4,1.6-3.4,3.4v29C53.3,37.4,54.9,38.8,56.8,39.1z"/>
</svg>
