<?xml version="1.0" encoding="utf-8"?>
<!-- Generator: Adobe Illustrator 22.0.1, SVG Export Plug-In . SVG Version: 6.00 Build 0)  -->
<!DOCTYPE svg PUBLIC "-//W3C//DTD SVG 1.1//EN" "http://www.w3.org/Graphics/SVG/1.1/DTD/svg11.dtd">
<svg version="1.1" id="Layer_1" xmlns="http://www.w3.org/2000/svg" xmlns:xlink="http://www.w3.org/1999/xlink" x="0px" y="0px"
	 viewBox="0 0 96 128" style="enable-background:new 0 0 96 128;" xml:space="preserve">
<style type="text/css">
	.st0{fill:#939498;}
</style>
<path class="st0" d="M10,117V10c0-0.6,0.4-1,1-1h58c0.3,0,0.5,0.1,0.7,0.3S70,9.7,70,10v11c0,1.3,0.5,2.6,1.5,3.5 c0.9,0.9,2.2,1.5,3.5,1.5h11c0.3,0,0.5,0.1,0.7,0.3S87,26.7,87,27v90c0,0.3-0.1,0.5-0.3,0.7S86.3,118,86,118H11 C10.4,118,10,117.6,10,117z M83.8,21H76c-0.6,0-1-0.4-1-1v-7.8c0-0.2,0.1-0.4,0.3-0.5c0.2-0.1,0.4,0,0.5,0.1l8.3,8.3l0,0 c0.1,0.1,0.2,0.4,0.1,0.5S84,21,83.8,21L83.8,21z M90.5,19.5l-14-14C75.6,4.5,74.3,4,73,4H10C7.2,4,5,6.2,5,9v109 c0,1.3,0.5,2.6,1.5,3.5c0.9,0.9,2.2,1.5,3.5,1.5h77c1.3,0,2.6-0.5,3.5-1.5s1.5-2.2,1.5-3.5V23C92,21.7,91.5,20.4,90.5,19.5z M80,37.3v-1.6c0-0.9-0.8-1.7-1.7-1.7H17.7c-0.9,0-1.7,0.8-1.7,1.7v1.6c0,0.9,0.8,1.7,1.7,1.7h60.6C79.2,39,80,38.2,80,37.3z M80,46.3v-1.6c0-0.9-0.8-1.7-1.7-1.7H17.7c-0.9,0-1.7,0.8-1.7,1.7v1.6c0,0.9,0.8,1.7,1.7,1.7h60.6C79.2,48,80,47.2,80,46.3z M54,54.3v-0.6c0-0.9-0.8-1.7-1.7-1.7H17.7c-0.9,0-1.7,0.8-1.7,1.7v0.6c0,0.9,0.8,1.7,1.7,1.7h34.6C53.2,55.9,54,55.2,54,54.3z M54,61.3v-0.6c0-0.9-0.8-1.7-1.7-1.7H17.7c-0.9,0-1.7,0.8-1.7,1.7v0.6c0,0.9,0.8,1.7,1.7,1.7h34.6C53.2,63,54,62.2,54,61.3z M54,68.3v-0.6c0-0.9-0.8-1.7-1.7-1.7H17.7c-0.9,0-1.7,0.8-1.7,1.7v0.6c0,0.9,0.8,1.7,1.7,1.7h34.6C53.2,69.9,54,69.2,54,68.3z M80,68l0-14.3c0-0.9-0.8-1.7-1.7-1.7H59.7c-0.9,0-1.7,0.8-1.7,1.7L58,68c0,0.9,0.8,1.7,1.7,1.7h18.6C79.2,69.6,80,68.9,80,68z M80.5,75.3v-0.6c0-0.9-0.8-1.7-1.7-1.7H17.7c-0.9,0-1.7,0.8-1.7,1.7v0.6c0,0.9,0.8,1.7,1.7,1.7h61.1C79.7,77,80.5,76.2,80.5,75.3z M80.5,82.3v-0.6c0-0.9-0.8-1.7-1.7-1.7H17.7c-0.9,0-1.7,0.8-1.7,1.7v0.6c0,0.9,0.8,1.7,1.7,1.7h61.1C79.7,83.9,80.5,83.2,80.5,82.3 z M80.5,89.3v-0.6c0-0.9-0.8-1.7-1.7-1.7H17.7c-0.9,0-1.7,0.8-1.7,1.7v0.6c0,0.9,0.8,1.7,1.7,1.7h61.1C79.7,91,80.5,90.2,80.5,89.3z M80.5,96.3v-0.6c0-0.9-0.8-1.7-1.7-1.7H17.7c-0.9,0-1.7,0.8-1.7,1.7v0.6c0,0.9,0.8,1.7,1.7,1.7h61.1C79.7,97.9,80.5,97.2,80.5,96.3 z M80.5,103.3v-0.6c0-0.9-0.8-1.7-1.7-1.7H17.7c-0.9,0-1.7,0.8-1.7,1.7v0.6c0,0.9,0.8,1.7,1.7,1.7h61.1 C79.7,105,80.5,104.2,80.5,103.3z M80.5,110.3v-0.6c0-0.9-0.8-1.7-1.7-1.7H17.7c-0.9,0-1.7,0.8-1.7,1.7v0.6c0,0.9,0.8,1.7,1.7,1.7 h61.1C79.7,112,80.5,111.2,80.5,110.3z M54,26.3v-6.6c0-0.9-0.8-1.7-1.7-1.7H17.7c-0.9,0-1.7,0.8-1.7,1.7v6.6c0,0.9,0.8,1.7,1.7,1.7 h34.6C53.2,28,54,27.2,54,26.3z"/>
</svg>
