<?xml version="1.0" encoding="utf-8"?>
<!-- Generator: Adobe Illustrator 22.0.1, SVG Export Plug-In . SVG Version: 6.00 Build 0)  -->
<!DOCTYPE svg PUBLIC "-//W3C//DTD SVG 1.1//EN" "http://www.w3.org/Graphics/SVG/1.1/DTD/svg11.dtd">
<svg version="1.1" id="Layer_1" xmlns="http://www.w3.org/2000/svg" xmlns:xlink="http://www.w3.org/1999/xlink" x="0px" y="0px"
	 viewBox="0 0 96 128" style="enable-background:new 0 0 96 128;" xml:space="preserve">
<style type="text/css">
	.st0{fill:#939498;}
</style>
<path class="st0" d="M10,117V10c0-0.6,0.4-1,1-1h58c0.3,0,0.5,0.1,0.7,0.3S70,9.7,70,10v11c0,1.3,0.5,2.6,1.5,3.5 c0.9,0.9,2.2,1.5,3.5,1.5h11c0.3,0,0.5,0.1,0.7,0.3S87,26.7,87,27v90c0,0.3-0.1,0.5-0.3,0.7S86.3,118,86,118H11 C10.4,118,10,117.6,10,117z M83.8,21H76c-0.6,0-1-0.4-1-1v-7.8c0-0.2,0.1-0.4,0.3-0.5c0.2-0.1,0.4,0,0.5,0.1l8.3,8.3l0,0 c0.1,0.1,0.2,0.4,0.1,0.5S84,21,83.8,21L83.8,21z M90.5,19.5l-14-14C75.6,4.5,74.3,4,73,4H10C7.2,4,5,6.2,5,9v109 c0,1.3,0.5,2.6,1.5,3.5c0.9,0.9,2.2,1.5,3.5,1.5h77c1.3,0,2.6-0.5,3.5-1.5s1.5-2.2,1.5-3.5V23C92,21.7,91.5,20.4,90.5,19.5z M59,44.3v-0.6c0-0.9-0.8-1.7-1.7-1.7H26.7c-0.9,0-1.7,0.8-1.7,1.7v0.6c0,0.9,0.8,1.7,1.7,1.7h30.6C58.2,45.9,59,45.2,59,44.3z M59,48L59,48c0-0.5-0.4-0.9-0.9-0.9H25.9c-0.5,0-0.9,0.4-0.9,0.9l0,0c0,0.5,0.4,0.9,0.9,0.9h32.2C58.6,48.9,59,48.5,59,48z M54,26.3v-6.6c0-0.9-0.8-1.7-1.7-1.7H17.7c-0.9,0-1.7,0.8-1.7,1.7v6.6c0,0.9,0.8,1.7,1.7,1.7h34.6C53.2,28,54,27.2,54,26.3z M23,47.3v-3.6c0-0.9-0.8-1.7-1.7-1.7h-3.6c-0.9,0-1.7,0.8-1.7,1.7v3.6c0,0.9,0.8,1.7,1.7,1.7h3.6C22.2,49,23,48.2,23,47.3z M59,54.3v-0.6c0-0.9-0.8-1.7-1.7-1.7H26.7c-0.9,0-1.7,0.8-1.7,1.7v0.6c0,0.9,0.8,1.7,1.7,1.7h30.6C58.2,55.9,59,55.2,59,54.3z M59,58L59,58c0-0.5-0.4-0.9-0.9-0.9H25.9c-0.5,0-0.9,0.4-0.9,0.9l0,0c0,0.5,0.4,0.9,0.9,0.9h32.2C58.6,58.9,59,58.5,59,58z M23,57.3v-3.6c0-0.9-0.8-1.7-1.7-1.7h-3.6c-0.9,0-1.7,0.8-1.7,1.7v3.6c0,0.9,0.8,1.7,1.7,1.7h3.6C22.2,59,23,58.2,23,57.3z M59,64.3v-0.6c0-0.9-0.8-1.7-1.7-1.7H26.7c-0.9,0-1.7,0.8-1.7,1.7v0.6c0,0.9,0.8,1.7,1.7,1.7h30.6C58.2,65.9,59,65.2,59,64.3z M59,68L59,68c0-0.5-0.4-0.9-0.9-0.9H25.9c-0.5,0-0.9,0.4-0.9,0.9v0c0,0.5,0.4,0.9,0.9,0.9h32.2C58.6,68.9,59,68.5,59,68z M23,67.3 v-3.6c0-0.9-0.8-1.7-1.7-1.7h-3.6c-0.9,0-1.7,0.8-1.7,1.7v3.6c0,0.9,0.8,1.7,1.7,1.7h3.6C22.2,69,23,68.2,23,67.3z M59,74.3v-0.6 c0-0.9-0.8-1.7-1.7-1.7H26.7c-0.9,0-1.7,0.8-1.7,1.7v0.6c0,0.9,0.8,1.7,1.7,1.7h30.6C58.2,75.9,59,75.2,59,74.3z M59,78L59,78 c0-0.5-0.4-0.9-0.9-0.9H25.9c-0.5,0-0.9,0.4-0.9,0.9v0c0,0.5,0.4,0.9,0.9,0.9h32.2C58.6,78.9,59,78.5,59,78z M23,77.3v-3.6 c0-0.9-0.8-1.7-1.7-1.7h-3.6c-0.9,0-1.7,0.8-1.7,1.7v3.6c0,0.9,0.8,1.7,1.7,1.7h3.6C22.2,79,23,78.2,23,77.3z M59,84.3v-0.6 c0-0.9-0.8-1.7-1.7-1.7H26.7c-0.9,0-1.7,0.8-1.7,1.7v0.6c0,0.9,0.8,1.7,1.7,1.7h30.6C58.2,85.9,59,85.2,59,84.3z M59,88L59,88 c0-0.5-0.4-0.9-0.9-0.9H25.9c-0.5,0-0.9,0.4-0.9,0.9v0c0,0.5,0.4,0.9,0.9,0.9h32.2C58.6,88.9,59,88.5,59,88z M23,87.3v-3.6 c0-0.9-0.8-1.7-1.7-1.7h-3.6c-0.9,0-1.7,0.8-1.7,1.7v3.6c0,0.9,0.8,1.7,1.7,1.7h3.6C22.2,89,23,88.2,23,87.3z M59,94.3v-0.6 c0-0.9-0.8-1.7-1.7-1.7H26.7c-0.9,0-1.7,0.8-1.7,1.7v0.6c0,0.9,0.8,1.7,1.7,1.7h30.6C58.2,95.9,59,95.2,59,94.3z M59,98L59,98 c0-0.5-0.4-0.9-0.9-0.9H25.9c-0.5,0-0.9,0.4-0.9,0.9v0c0,0.5,0.4,0.9,0.9,0.9h32.2C58.6,98.9,59,98.5,59,98z M23,97.3v-3.6 c0-0.9-0.8-1.7-1.7-1.7h-3.6c-0.9,0-1.7,0.8-1.7,1.7v3.6c0,0.9,0.8,1.7,1.7,1.7h3.6C22.2,99,23,98.2,23,97.3z M76,35.3v-1.6 c0-0.9-0.8-1.7-1.7-1.7H17.7c-0.9,0-1.7,0.8-1.7,1.7v1.6c0,0.9,0.8,1.7,1.7,1.7h56.6C75.2,37,76,36.2,76,35.3z"/>
</svg>
