<?xml version="1.0" encoding="utf-8"?>
<!-- Generator: Adobe Illustrator 20.0.0, SVG Export Plug-In . SVG Version: 6.00 Build 0)  -->
<svg version="1.1" id="Layer_1" xmlns="http://www.w3.org/2000/svg" xmlns:xlink="http://www.w3.org/1999/xlink" x="0px" y="0px"
	 viewBox="0 0 96 128" style="enable-background:new 0 0 96 128;" xml:space="preserve">
<style type="text/css">
	.st0{fill:#939498;}
</style>
<path class="st0" d="M16,26.3v-6.6c0-0.9,0.8-1.7,1.7-1.7h34.6c0.9,0,1.7,0.8,1.7,1.7v6.6c0,0.9-0.8,1.7-1.7,1.7H17.7
	C16.8,28,16,27.2,16,26.3z M17.7,37h47.5c0.9,0,1.7-0.8,1.7-1.7v-1.6c0-0.9-0.8-1.7-1.7-1.7H17.7c-0.9,0-1.7,0.8-1.7,1.7v1.6
	C16,36.2,16.8,37,17.7,37z M92,23v95c0,1.3-0.6,2.5-1.5,3.5S88.3,123,87,123H10c-1.3,0-2.6-0.6-3.5-1.5c-1-0.9-1.5-2.2-1.5-3.5V9
	c0-2.8,2.2-5,5-5h63c1.3,0,2.6,0.5,3.5,1.5l14,14C91.5,20.4,92,21.7,92,23z M75,20c0,0.6,0.4,1,1,1h7.8c0.2,0,0.3-0.3,0.4-0.4
	c0.1-0.1,0-0.4-0.1-0.5l-8.3-8.3c-0.1-0.1-0.3-0.2-0.5-0.1C75.1,11.8,75,12,75,12.2V20z M87,27c0-0.3-0.1-0.5-0.3-0.7S86.3,26,86,26
	H75c-1.3,0-2.6-0.6-3.5-1.5c-1-0.9-1.5-2.2-1.5-3.5V10c0-0.3-0.1-0.5-0.3-0.7S69.3,9,69,9H11c-0.6,0-1,0.4-1,1v107c0,0.6,0.4,1,1,1
	h75c0.3,0,0.5-0.1,0.7-0.3c0.2-0.2,0.3-0.4,0.3-0.7V27z M17.7,45.9h47.5c0.9,0,1.7-0.8,1.7-1.7v-1.6c0-0.9-0.8-1.7-1.7-1.7H17.7
	c-0.9,0-1.7,0.8-1.7,1.7v1.6C16,45.1,16.8,45.9,17.7,45.9z M65.7,61.7H28.8c-0.9,0-1.7,0.8-1.7,1.7v3.5c0,0.9,0.8,1.7,1.7,1.7h36.9
	c0.9-0.1,1.7-0.8,1.7-1.7v-3.5C67.4,62.5,66.6,61.7,65.7,61.7z M22.2,61.7h-4.4c-0.9,0-1.7,0.8-1.7,1.7V67c0,0.9,0.8,1.7,1.7,1.7
	h4.4c0.9,0,1.7-0.8,1.7-1.7v-3.6C23.9,62.5,23.1,61.7,22.2,61.7z M65.7,51H28.8c-0.9,0-1.7,0.8-1.7,1.7v3.5c0,0.9,0.8,1.7,1.7,1.7
	h36.9c0.9-0.1,1.7-0.8,1.7-1.7v-3.5C67.4,51.8,66.6,51,65.7,51z M22.2,51h-4.4c-0.9,0-1.7,0.8-1.7,1.7v3.6c0,0.9,0.8,1.7,1.7,1.7
	h4.4c0.9,0,1.7-0.8,1.7-1.7v-3.6C23.9,51.8,23.1,51,22.2,51z M65.7,72.3H28.8c-0.9,0-1.7,0.8-1.7,1.7v3.5c0,0.9,0.8,1.7,1.7,1.7
	h36.9c0.9-0.1,1.7-0.8,1.7-1.7V74C67.4,73.1,66.6,72.3,65.7,72.3z M22.2,72.3h-4.4c-0.9,0-1.7,0.8-1.7,1.7v3.6
	c0,0.9,0.8,1.7,1.7,1.7h4.4c0.9,0,1.7-0.8,1.7-1.7V74C23.9,73.1,23.1,72.3,22.2,72.3z M65.7,82.9H28.8c-0.9,0-1.7,0.8-1.7,1.7v3.5
	c0,0.9,0.8,1.7,1.7,1.7h36.9c0.9-0.1,1.7-0.8,1.7-1.7v-3.5C67.4,83.7,66.6,82.9,65.7,82.9z M22.2,82.9h-4.4c-0.9,0-1.7,0.8-1.7,1.7
	v3.6c0,0.9,0.8,1.7,1.7,1.7h4.4c0.9,0,1.7-0.8,1.7-1.7v-3.6C23.9,83.7,23.1,82.9,22.2,82.9z M65.7,93.6H28.8c-0.9,0-1.7,0.8-1.7,1.7
	v3.5c0,0.9,0.8,1.7,1.7,1.7h36.9c0.9-0.1,1.7-0.8,1.7-1.7v-3.5C67.4,94.4,66.6,93.6,65.7,93.6z M22.2,93.6h-4.4
	c-0.9,0-1.7,0.8-1.7,1.7v3.6c0,0.9,0.8,1.7,1.7,1.7h4.4c0.9,0,1.7-0.8,1.7-1.7v-3.6C23.9,94.4,23.1,93.6,22.2,93.6z M65.7,104.2
	H28.8c-0.9,0-1.7,0.8-1.7,1.7v3.5c0,0.9,0.8,1.7,1.7,1.7h36.9c0.9-0.1,1.7-0.8,1.7-1.7v-3.5C67.4,105,66.6,104.2,65.7,104.2z
	 M22.2,104.2h-4.4c-0.9,0-1.7,0.8-1.7,1.7v3.6c0,0.9,0.8,1.7,1.7,1.7h4.4c0.9,0,1.7-0.8,1.7-1.7v-3.6
	C23.9,105,23.1,104.2,22.2,104.2z"/>
</svg>
