<?xml version="1.0" encoding="utf-8"?>
<!-- Generator: Adobe Illustrator 22.0.1, SVG Export Plug-In . SVG Version: 6.00 Build 0)  -->
<!DOCTYPE svg PUBLIC "-//W3C//DTD SVG 1.1//EN" "http://www.w3.org/Graphics/SVG/1.1/DTD/svg11.dtd">
<svg version="1.1" id="Layer_1" xmlns="http://www.w3.org/2000/svg" xmlns:xlink="http://www.w3.org/1999/xlink" x="0px" y="0px"
	 viewBox="0 0 96 128" style="enable-background:new 0 0 96 128;" xml:space="preserve">
<style type="text/css">
	.st0{fill:#939498;}
</style>
<path class="st0" d="M90.5,19.5l-14-14C75.6,4.5,74.3,4,73,4H10C7.2,4,5,6.2,5,9v109c0,1.3,0.5,2.6,1.5,3.5c0.9,0.9,2.2,1.5,3.5,1.5 h77c1.3,0,2.6-0.5,3.5-1.5s1.5-2.2,1.5-3.5V23C92,21.7,91.5,20.4,90.5,19.5z M87,117c0,0.3-0.1,0.5-0.3,0.7 c-0.2,0.2-0.4,0.3-0.7,0.3H11c-0.6,0-1-0.4-1-1V10c0-0.6,0.4-1,1-1h58c0.3,0,0.5,0.1,0.7,0.3S70,9.7,70,10v11c0,1.3,0.5,2.6,1.5,3.5 c0.9,0.9,2.2,1.5,3.5,1.5h11c0.3,0,0.5,0.1,0.7,0.3S87,26.7,87,27V117z M83.8,21H76c-0.6,0-1-0.4-1-1v-7.8c0-0.2,0.1-0.4,0.3-0.5 c0.2-0.1,0.4,0,0.5,0.1l8.3,8.3l0,0c0.1,0.1,0.2,0.4,0.1,0.5S84,21,83.8,21L83.8,21z M76.1,79.1c0.1,0.1,0.1,0.2,0.1,0.2 c-0.2,0.4-1.1,0.9-2.7,0.9c-0.4,0-0.9,0-1.4-0.1c-2-0.4-4.3-1.7-7.1-4.2C72.4,76.2,75.5,78,76.1,79.1L76.1,79.1z M53.7,71.4 c-2.6,0.2-6.5,0.8-10.9,1.8c1.7-3.4,3.3-6.8,4.6-10c0.5,0.6,0.9,1.2,1.4,1.8c1.6,2,3.4,4.2,5.2,6.4L53.7,71.4z M45.1,40.5 c0.4-1.1,0.8-1.6,1.1-1.7c0,0,0,0,0,0c0.3,0.3,1.4,2,0.9,8.9c-0.1,1.2-0.4,2.7-0.9,4.5C44.6,48.1,44.1,43.5,45.1,40.5L45.1,40.5z M25.1,91.3c-0.8,0.5-1.5,0.8-2.1,0.8c-0.1,0-0.2,0-0.2,0c-0.1-0.5,0.2-2.6,3.6-5.9c1.6-1.5,3.6-3,6-4.2 C29.4,86.8,26.7,90.3,25.1,91.3L25.1,91.3z M60.1,71c-2.6-2.9-5.2-6.1-7.5-9c-1.1-1.4-2.1-2.7-3.1-3.9L49.5,58 c1.4-4.1,2.2-7.4,2.4-9.9c0.5-6.4-0.2-10.5-2.2-12.5c-1.3-1.4-3.3-1.9-5.1-1.3c-1.3,0.4-3.1,1.6-4.1,4.7C39,43.7,39.7,51.9,44,58.7 c-1.9,5-4.6,10.8-7.6,16.3c-5.6,2-10.1,4.6-13.4,7.7c-4.2,4.1-5.9,8.2-4.7,11.2c0.8,1.9,2.5,3,4.7,3c1.5,0,3.1-0.5,4.7-1.6 c4-2.6,9.2-11.3,12-16.3c5.8-1.8,11.5-2.5,14.4-2.8c1.3-0.1,2.6-0.2,3.9-0.3c5.1,5.4,9.2,8.2,13.1,8.9c0.8,0.1,1.5,0.2,2.3,0.2 c3.1,0,5.7-1.2,6.9-3.3c0.9-1.6,0.9-3.4,0-5C78.2,73,71.7,71,62.2,71C61.5,71,60.8,71,60.1,71L60.1,71z"/>
</svg>
