<?xml version="1.0" encoding="utf-8"?>
<!-- Generator: Adobe Illustrator 22.1.0, SVG Export Plug-In . SVG Version: 6.00 Build 0)  -->
<!DOCTYPE svg PUBLIC "-//W3C//DTD SVG 1.1//EN" "http://www.w3.org/Graphics/SVG/1.1/DTD/svg11.dtd">
<svg version="1.1" id="Layer_1" xmlns="http://www.w3.org/2000/svg" xmlns:xlink="http://www.w3.org/1999/xlink" x="0px" y="0px"
	 viewBox="0 0 96 128" style="enable-background:new 0 0 96 128;" xml:space="preserve">
<style type="text/css">
	.st0{fill:#939498;}
</style>
<path class="st0" d="M90.5,19.5l-14-14C75.6,4.5,74.3,4,73,4H10C7.2,4,5,6.2,5,9v109c0,1.3,0.5,2.6,1.5,3.5c0.9,0.9,2.2,1.5,3.5,1.5 h77c1.3,0,2.6-0.5,3.5-1.5s1.5-2.2,1.5-3.5V23C92,21.7,91.5,20.4,90.5,19.5z M75,12.2c0-0.2,0.1-0.4,0.3-0.5c0.2-0.1,0.4,0,0.5,0.1 l8.3,8.3c0.1,0.1,0.2,0.4,0.1,0.5C84.1,20.7,84,21,83.8,21H76c-0.6,0-1-0.4-1-1V12.2z M87,117c0,0.3-0.1,0.5-0.3,0.7 c-0.2,0.2-0.4,0.3-0.7,0.3H11c-0.6,0-1-0.4-1-1V10c0-0.6,0.4-1,1-1h58c0.3,0,0.5,0.1,0.7,0.3S70,9.7,70,10v11c0,1.3,0.5,2.6,1.5,3.5 c0.9,0.9,2.2,1.5,3.5,1.5h11c0.3,0,0.5,0.1,0.7,0.3S87,26.7,87,27V117z M69.9,58.7v25.4c0,2.1-1.7,3.8-3.8,3.8H40l-12.7,12.7 l1.3-12.7h-5.7c-2.1,0-3.8-1.7-3.8-3.8V58.7c0-2.1,1.7-3.8,3.8-3.8h43.3C68.2,54.9,69.9,56.6,69.9,58.7z M19,26.4v-6.6 c0-0.9,0.8-1.7,1.7-1.7h34.6c0.9,0,1.7,0.8,1.7,1.7v6.6c0,0.9-0.8,1.7-1.7,1.7H20.7C19.8,28.1,19,27.3,19,26.4z M69.9,93.4v2.5 c0,0.9-0.8,1.7-1.7,1.7H48.8c-0.9,0-1.7-0.8-1.7-1.7v-2.5c0-0.9,0.8-1.7,1.7-1.7h19.4C69.1,91.7,69.9,92.5,69.9,93.4z M69.9,38.8 v1.6c0,0.9-0.8,1.7-1.7,1.7H20.7c-0.9,0-1.7-0.8-1.7-1.7v-1.6c0-0.9,0.8-1.7,1.7-1.7h47.5C69.1,37.1,69.9,37.9,69.9,38.8z M69.9,47.7v1.6c0,0.9-0.8,1.7-1.7,1.7H20.7c-0.9,0-1.7-0.8-1.7-1.7v-1.6c0-0.9,0.8-1.7,1.7-1.7h47.5C69.1,46,69.9,46.8,69.9,47.7z"
	/>
</svg>
