<?xml version="1.0" encoding="utf-8"?>
<!-- Generator: Adobe Illustrator 23.0.6, SVG Export Plug-In . SVG Version: 6.00 Build 0)  -->
<svg version="1.1" id="Layer_1" xmlns="http://www.w3.org/2000/svg" xmlns:xlink="http://www.w3.org/1999/xlink" x="0px" y="0px"
	 viewBox="0 0 96 128" style="enable-background:new 0 0 96 128;" xml:space="preserve">
<style type="text/css">
	.st0{fill:#939498;}
</style>
<path class="st0" d="M90.5,19.5l-14-14C75.6,4.5,74.3,4,73,4H10C7.2,4,5,6.2,5,9v109c0,1.3,0.5,2.6,1.5,3.5c0.9,0.9,2.2,1.5,3.5,1.5 h77c1.3,0,2.6-0.5,3.5-1.5s1.5-2.2,1.5-3.5V23C92,21.7,91.5,20.4,90.5,19.5z M87,117c0,0.3-0.1,0.5-0.3,0.7 c-0.2,0.2-0.4,0.3-0.7,0.3H11c-0.6,0-1-0.4-1-1V10c0-0.6,0.4-1,1-1h58c0.3,0,0.5,0.1,0.7,0.3S70,9.7,70,10v11c0,1.3,0.5,2.6,1.5,3.5 c0.9,0.9,2.2,1.5,3.5,1.5h11c0.3,0,0.5,0.1,0.7,0.3S87,26.7,87,27V117z M83.8,21H76c-0.6,0-1-0.4-1-1v-7.8c0-0.2,0.1-0.4,0.3-0.5 c0.2-0.1,0.4,0,0.5,0.1l8.3,8.3l0,0c0.1,0.1,0.2,0.4,0.1,0.5S84,21,83.8,21L83.8,21z M49.2,78.9c0,2.8-1.7,4.6-4.3,4.6 c-2.7,0-4.3-1.8-4.3-4.6V67.8c0-4.4,0.1-5.2,6.9-6.6c7.8-1.6,9-7,9-10.6c0-6.7-4.8-10.8-11.4-10.8c-5.2,0-9.2,1.9-11.4,8.1 c-0.9,2.6-2.1,3.2-3.8,3.2c-2.3,0-4.3-1.8-4.2-4.5c0.4-8.6,10-14.8,19.2-14.8c11.9,0,20.9,7.7,20.9,18.1c0,10.6-6.7,17.2-16.5,19.3 V78.9z M44.8,92.8c2.8,0,5,2.3,5,5c0,2.8-2.3,5-5,5c-2.7,0-5-2.3-5-5C39.8,95.1,42.1,92.8,44.8,92.8z"/>
</svg>
