<?xml version="1.0" encoding="utf-8"?>
<!-- Generator: Adobe Illustrator 20.0.0, SVG Export Plug-In . SVG Version: 6.00 Build 0)  -->
<svg version="1.1" id="Layer_1" xmlns="http://www.w3.org/2000/svg" xmlns:xlink="http://www.w3.org/1999/xlink" x="0px" y="0px"
	 viewBox="0 0 96 128" style="enable-background:new 0 0 96 128;" xml:space="preserve">
<style type="text/css">
	.st0{fill:#939498;}
</style>
<path class="st0" d="M90.5,19.5l-14-14C75.6,4.5,74.3,4,73,4H10C7.2,4,5,6.2,5,9v109c0,1.3,0.5,2.6,1.5,3.5c0.9,0.9,2.2,1.5,3.5,1.5 h77c1.3,0,2.6-0.5,3.5-1.5s1.5-2.2,1.5-3.5V23C92,21.7,91.5,20.4,90.5,19.5z M87,117c0,0.3-0.1,0.5-0.3,0.7 c-0.2,0.2-0.4,0.3-0.7,0.3H11c-0.6,0-1-0.4-1-1V10c0-0.6,0.4-1,1-1h58c0.3,0,0.5,0.1,0.7,0.3S70,9.7,70,10v11c0,1.3,0.5,2.6,1.5,3.5 c0.9,0.9,2.2,1.5,3.5,1.5h11c0.3,0,0.5,0.1,0.7,0.3S87,26.7,87,27V117z M83.8,21H76c-0.6,0-1-0.4-1-1v-7.8c0-0.2,0.1-0.4,0.3-0.5 c0.2-0.1,0.4,0,0.5,0.1l8.3,8.3l0,0c0.1,0.1,0.2,0.4,0.1,0.5S84,21,83.8,21L83.8,21z M79.6,36.3v-0.6c0-0.9-0.8-1.7-1.7-1.7H43.3 c-0.9,0-1.7,0.8-1.7,1.7v0.6c0,0.9,0.8,1.7,1.7,1.7h34.6C78.8,37.9,79.6,37.2,79.6,36.3z M79.6,43.3v-0.6c0-0.9-0.8-1.7-1.7-1.7 H43.3c-0.9,0-1.7,0.8-1.7,1.7v0.6c0,0.9,0.8,1.7,1.7,1.7h34.6C78.8,45,79.6,44.2,79.6,43.3z M79.6,50.3v-0.6c0-0.9-0.8-1.7-1.7-1.7 H43.3c-0.9,0-1.7,0.8-1.7,1.7v0.6c0,0.9,0.8,1.7,1.7,1.7h34.6C78.8,51.9,79.6,51.2,79.6,50.3z M79.6,57.3v-0.6 c0-0.9-0.8-1.7-1.7-1.7H43.3c-0.9,0-1.7,0.8-1.7,1.7v0.6c0,0.9,0.8,1.7,1.7,1.7h34.6C78.8,58.9,79.6,58.2,79.6,57.3z M79.6,64.3 v-0.6c0-0.9-0.8-1.7-1.7-1.7H43.3c-0.9,0-1.7,0.8-1.7,1.7v0.6c0,0.9,0.8,1.7,1.7,1.7h34.6C78.8,66,79.6,65.2,79.6,64.3z M79.6,71.3 v-0.6c0-0.9-0.8-1.7-1.7-1.7H43.3c-0.9,0-1.7,0.8-1.7,1.7v0.6c0,0.9,0.8,1.7,1.7,1.7h34.6C78.8,72.9,79.6,72.2,79.6,71.3z M79.6,78.3v-0.6c0-0.9-0.8-1.7-1.7-1.7H43.3c-0.9,0-1.7,0.8-1.7,1.7v0.6c0,0.9,0.8,1.7,1.7,1.7h34.6C78.8,79.9,79.6,79.2,79.6,78.3 z M79.6,85.3v-0.6c0-0.9-0.8-1.7-1.7-1.7H43.3c-0.9,0-1.7,0.8-1.7,1.7v0.6c0,0.9,0.8,1.7,1.7,1.7h34.6C78.8,87,79.6,86.2,79.6,85.3z M79.6,92.3v-0.6c0-0.9-0.8-1.7-1.7-1.7H43.3c-0.9,0-1.7,0.8-1.7,1.7v0.6c0,0.9,0.8,1.7,1.7,1.7h34.6C78.8,93.9,79.6,93.2,79.6,92.3 z M38,50.1V35.8c0-0.9-0.8-1.7-1.7-1.7H17.7c-0.9,0-1.7,0.8-1.7,1.7v14.3c0,0.9,0.8,1.7,1.7,1.7h18.6C37.2,51.7,38,51,38,50.1z M54,26.3v-6.6c0-0.9-0.8-1.7-1.7-1.7H17.7c-0.9,0-1.7,0.8-1.7,1.7v6.6c0,0.9,0.8,1.7,1.7,1.7h34.6C53.2,28,54,27.2,54,26.3z"/>
</svg>
