<?xml version="1.0" encoding="utf-8"?>
<!-- Generator: Adobe Illustrator 22.0.1, SVG Export Plug-In . SVG Version: 6.00 Build 0)  -->
<!DOCTYPE svg PUBLIC "-//W3C//DTD SVG 1.1//EN" "http://www.w3.org/Graphics/SVG/1.1/DTD/svg11.dtd">
<svg version="1.1" id="Layer_1" xmlns="http://www.w3.org/2000/svg" xmlns:xlink="http://www.w3.org/1999/xlink" x="0px" y="0px"
	 viewBox="0 0 96 128" style="enable-background:new 0 0 96 128;" xml:space="preserve">
<style type="text/css">
	.st0{fill:#939498;}
</style>
<path class="st0" d="M78.3,86H17.7c-0.9,0-1.7-0.8-1.7-1.7v-1.6c0-0.9,0.8-1.7,1.7-1.7h60.6c0.9,0,1.7,0.8,1.7,1.7v1.6
	C80,85.2,79.2,86,78.3,86z M80,93.3v-1.6c0-0.9-0.8-1.7-1.7-1.7H17.7c-0.9,0-1.7,0.8-1.7,1.7v1.6c0,0.9,0.8,1.7,1.7,1.7h60.6
	C79.2,95,80,94.2,80,93.3z M80,102.3v-1.6c0-0.9-0.8-1.7-1.7-1.7H17.7c-0.9,0-1.7,0.8-1.7,1.7v1.6c0,0.9,0.8,1.7,1.7,1.7h60.6
	C79.2,104,80,103.2,80,102.3z M80,111.3v-1.6c0-0.9-0.8-1.7-1.7-1.7H17.7c-0.9,0-1.7,0.8-1.7,1.7v1.6c0,0.9,0.8,1.7,1.7,1.7h60.6
	C79.2,113,80,112.2,80,111.3z M92,23v95c0,1.3-0.5,2.6-1.5,3.5S88.3,123,87,123H10c-1.3,0-2.6-0.5-3.5-1.5c-1-0.9-1.5-2.2-1.5-3.5V9
	c0-2.8,2.2-5,5-5h63c1.3,0,2.6,0.5,3.5,1.5l14,14C91.5,20.4,92,21.7,92,23z M75,20c0,0.6,0.4,1,1,1h7.8l0,0c0.2,0,0.4-0.1,0.5-0.3
	s0-0.4-0.1-0.5l-8.3-8.3c-0.1-0.1-0.4-0.2-0.5-0.1S75,12,75,12.2V20z M16,65.3c0,0.9,0.8,1.7,1.7,1.7h34.6c0.9,0,1.7-0.8,1.7-1.7
	v-3.6c0-0.9-0.8-1.7-1.7-1.7H17.7c-0.9,0-1.7,0.8-1.7,1.7V65.3z M87,76H10v41c0,0.6,0.4,1,1,1h75c0.3,0,0.5-0.1,0.7-0.3
	s0.3-0.4,0.3-0.7V76z"/>
</svg>
