<?xml version="1.0" encoding="utf-8"?>
<!-- Generator: Adobe Illustrator 22.0.1, SVG Export Plug-In . SVG Version: 6.00 Build 0)  -->
<!DOCTYPE svg PUBLIC "-//W3C//DTD SVG 1.1//EN" "http://www.w3.org/Graphics/SVG/1.1/DTD/svg11.dtd">
<svg version="1.1" id="Layer_1" xmlns="http://www.w3.org/2000/svg" xmlns:xlink="http://www.w3.org/1999/xlink" x="0px" y="0px"
	 viewBox="0 0 96 128" style="enable-background:new 0 0 96 128;" xml:space="preserve">
<style type="text/css">
	.st0{fill:#939498;}
</style>
<path class="st0" d="M27.1,31.2 M27.1,31.2 M65.2,88.5 M82.5,26.3v1.6v6.5v51.5c0,2.2-1.8,4-4,4h0c-2.2,0-4-1.8-4-4V40.2L20.4,94.2c-1.6,1.6-4.1,1.6-5.7,0s-1.6-4.1,0-5.7l54.2-54.2l-44,0c-2.2,0-4-1.8-4-4c0-2.2,1.8-4,4-4l49.5,0v0l0,0H82.5z M69.4,48.5"/>
</svg>
