<?xml version="1.0" encoding="utf-8"?>
<!-- Generator: Adobe Illustrator 22.1.0, SVG Export Plug-In . SVG Version: 6.00 Build 0)  -->
<!DOCTYPE svg PUBLIC "-//W3C//DTD SVG 1.1//EN" "http://www.w3.org/Graphics/SVG/1.1/DTD/svg11.dtd">
<svg version="1.1" id="Layer_1" xmlns="http://www.w3.org/2000/svg" xmlns:xlink="http://www.w3.org/1999/xlink" x="0px" y="0px"
	 viewBox="0 0 96 128" style="enable-background:new 0 0 96 128;" xml:space="preserve">
<style type="text/css">
	.st0{fill:#BDBDBD;}
</style>
<path class="st0" d="M90.5,19.5l-14-14C75.6,4.5,74.3,4,73,4H10C7.2,4,5,6.2,5,9v109c0,1.3,0.5,2.6,1.5,3.5c0.9,0.9,2.2,1.5,3.5,1.5 h77c1.3,0,2.6-0.5,3.5-1.5s1.5-2.2,1.5-3.5V23C92,21.7,91.5,20.4,90.5,19.5z M75,12.2c0-0.2,0.1-0.4,0.3-0.5s0.4,0,0.5,0.1l8.3,8.3 c0.1,0.1,0.2,0.4,0.1,0.5C84.1,20.7,84,21,83.8,21H76c-0.6,0-1-0.4-1-1V12.2z M87,117c0,0.3-0.1,0.5-0.3,0.7S86.3,118,86,118H11 c-0.6,0-1-0.4-1-1V10c0-0.6,0.4-1,1-1h58c0.3,0,0.5,0.1,0.7,0.3C69.9,9.5,70,9.7,70,10v11c0,1.3,0.5,2.6,1.5,3.5 c0.9,0.9,2.2,1.5,3.5,1.5h11c0.3,0,0.5,0.1,0.7,0.3c0.2,0.2,0.3,0.4,0.3,0.7V117z M53,80c-0.2,0.2-0.2,0.5,0,0.6 c0.2,0.2,10.4,10.4,15.5,15.5c1.2,1.2,1.4,3.3,0.2,4.6c-1.2,1.4-3.3,1.4-4.8,0.2c-0.2-0.2-0.2-0.2-0.4-0.4 c-5.2-5.2-10.1-10.1-15.3-15.3c-0.2-0.2-0.6-0.2-0.8,0c-5.2,5.2-10.4,10.4-15.5,15.5c-1.4,1.4-3.7,1.4-5-0.2c-1-1.2-0.8-3.1,0.2-4.3 c0.8-0.8,1.9-1.9,2.7-2.7c4.3-4.3,8.7-8.7,13-13c0.2-0.2,0.2-0.5,0-0.6c-5.2-5.2-10.4-10.4-15.5-15.5c-1.2-1.2-1.4-3.3-0.2-4.6 c1.2-1.4,3.3-1.4,4.8-0.2c0.2,0.2,0.2,0.2,0.4,0.4c5.2,5.2,10.4,10.4,15.6,15.6c0.2,0.2,0.5,0.2,0.7,0.1 c5.2-5.2,10.3-10.3,15.4-15.4c1.2-1.7,3.7-1.4,5-0.2c1,1.2,0.8,3.1-0.2,4.3c-0.4,0.4-1,1-1.4,1.4C62.6,70.5,57.8,75.3,53,80z"/>
</svg>
