<?xml version="1.0" encoding="utf-8"?>
<!-- Generator: Adobe Illustrator 22.0.1, SVG Export Plug-In . SVG Version: 6.00 Build 0)  -->
<!DOCTYPE svg PUBLIC "-//W3C//DTD SVG 1.1//EN" "http://www.w3.org/Graphics/SVG/1.1/DTD/svg11.dtd">
<svg version="1.1" id="Layer_1" xmlns="http://www.w3.org/2000/svg" xmlns:xlink="http://www.w3.org/1999/xlink" x="0px" y="0px"
	 viewBox="0 0 96 128" style="enable-background:new 0 0 96 128;" xml:space="preserve">
<path d="M10,117V10c0-0.6,0.4-1,1-1h58c0.3,0,0.5,0.1,0.7,0.3S70,9.7,70,10v11c0,1.3,0.5,2.6,1.5,3.5c0.9,0.9,2.2,1.5,3.5,1.5h11
	c0.3,0,0.5,0.1,0.7,0.3S87,26.7,87,27v90c0,0.3-0.1,0.5-0.3,0.7S86.3,118,86,118H11C10.4,118,10,117.6,10,117z M83.8,21H76
	c-0.6,0-1-0.4-1-1v-7.8c0-0.2,0.1-0.4,0.3-0.5c0.2-0.1,0.4,0,0.5,0.1l8.3,8.3l0,0c0.1,0.1,0.2,0.4,0.1,0.5S84,21,83.8,21L83.8,21z
	 M90.5,19.5l-14-14C75.6,4.5,74.3,4,73,4H10C7.2,4,5,6.2,5,9v109c0,1.3,0.5,2.6,1.5,3.5c0.9,0.9,2.2,1.5,3.5,1.5h77
	c1.3,0,2.6-0.5,3.5-1.5s1.5-2.2,1.5-3.5V23C92,21.7,91.5,20.4,90.5,19.5z"/>
</svg>
