<?xml version="1.0" encoding="utf-8"?>
<!-- Generator: Adobe Illustrator 22.0.1, SVG Export Plug-In . SVG Version: 6.00 Build 0)  -->
<!DOCTYPE svg PUBLIC "-//W3C//DTD SVG 1.1//EN" "http://www.w3.org/Graphics/SVG/1.1/DTD/svg11.dtd">
<svg version="1.1" id="Layer_1" xmlns="http://www.w3.org/2000/svg" xmlns:xlink="http://www.w3.org/1999/xlink" x="0px" y="0px"
	 viewBox="0 0 96 96" style="enable-background:new 0 0 96 96;" xml:space="preserve">
<style type="text/css">
	.st0{fill:#939498;}
</style>
<path class="st0" d="M72.4,74.1H22.8c-0.7,0-1.4-0.8-1.4-1.7v-1.6c0-0.9,0.7-1.7,1.4-1.7h49.6c0.7,0,1.4,0.8,1.4,1.7v1.6 C73.8,73.3,73.1,74.1,72.4,74.1z M79.5,12.9H16.5c-2.3,0-4.1,2.2-4.1,5v60.2c0,1.3,0.4,2.6,1.2,3.5c0.7,1,1.8,1.5,2.9,1.5h63.1 c1.1,0,2-0.6,2.9-1.5c0.8-0.9,1.2-2.2,1.2-3.5V17.9C83.6,15.1,81.8,12.9,79.5,12.9z M21.4,53.3c0-0.9,0.7-1.7,1.4-1.7h28.3 c0.7,0,1.4,0.8,1.4,1.7v3.6c0,0.9-0.7,1.7-1.4,1.7H22.8c-0.7,0-1.4-0.8-1.4-1.7V53.3z M79.5,77.1c0,0.3-0.1,0.5-0.2,0.7 s-0.3,0.3-0.6,0.3H17.3c-0.5,0-0.8-0.4-0.8-1v-13h63.1V77.1z"/>
</svg>
