<?xml version="1.0" encoding="utf-8"?>
<!-- Generator: Adobe Illustrator 22.0.1, SVG Export Plug-In . SVG Version: 6.00 Build 0)  -->
<!DOCTYPE svg PUBLIC "-//W3C//DTD SVG 1.1//EN" "http://www.w3.org/Graphics/SVG/1.1/DTD/svg11.dtd">
<svg version="1.1" id="Layer_1" xmlns="http://www.w3.org/2000/svg" xmlns:xlink="http://www.w3.org/1999/xlink" x="0px" y="0px"
	 viewBox="0 0 48 64" style="enable-background:new 0 0 48 64;" xml:space="preserve">
<path d="M46.1,13.4L34.4,1.8C33.8,1.3,33.1,1,32.3,1l0,0H3.9C2.3,0.9,1,2.3,1,3.9v55.8c0,0.8,0.3,1.5,0.9,2.1s1.3,0.9,2.1,0.9h40.1 c0.8,0,1.5-0.3,2.1-0.9c0.6-0.6,0.9-1.3,0.9-2.1V15.5C47,14.7,46.7,14,46.1,13.4z M42.6,57.5c0,0.2-0.1,0.4-0.2,0.5 c-0.1,0.1-0.3,0.2-0.5,0.2H6.1c-0.4,0-0.7-0.3-0.7-0.7l0,0V6.1c0-0.4,0.3-0.7,0.7-0.7h22.5c0.2,0,0.4,0.1,0.5,0.2s0.2,0.3,0.2,0.5 v9.5c0,0.8,0.3,1.5,0.9,2.1s1.3,0.9,2.1,0.9h8.8c0.4,0,0.8,0.2,1,0.4c0.3,0.3,0.4,0.6,0.4,1L42.6,57.5L42.6,57.5z M24,41.7 c-2.2,0-4.1-1.8-4.1-4.1c0-2.2,1.8-4.1,4.1-4.1s4.1,1.8,4.1,4.1C28.1,39.9,26.3,41.7,24,41.7z M35.2,35.6L32.1,35 c-0.1-0.4-0.3-0.8-0.5-1.2l1.7-2.6c0.3-0.4,0.2-0.9-0.1-1.3l-1.5-1.5c-0.3-0.3-0.9-0.4-1.3-0.1l-2.6,1.7c-0.4-0.2-0.8-0.4-1.2-0.5 l-0.6-3.1c-0.1-0.5-0.5-0.8-1-0.8H23c-0.5,0-0.9,0.3-1,0.8l-0.6,3.1c-0.4,0.1-0.8,0.3-1.2,0.5l-2.6-1.7c-0.4-0.3-0.9-0.2-1.3,0.1 l-1.5,1.5c-0.3,0.3-0.4,0.9-0.1,1.3l1.7,2.6c-0.2,0.4-0.4,0.8-0.5,1.2l-3.1,0.6c-0.5,0.1-0.8,0.5-0.8,1v2.1c0,0.5,0.3,0.9,0.8,1 l3.1,0.6c0.1,0.4,0.3,0.8,0.5,1.2l-1.7,2.6c-0.3,0.4-0.2,0.9,0.1,1.3l1.5,1.5c0.2,0.2,0.5,0.3,0.7,0.3c0.2,0,0.4-0.1,0.6-0.2 l2.6-1.7c0.4,0.2,0.8,0.4,1.2,0.5l0.6,3.1c0.1,0.5,0.5,0.8,1,0.8h2.1c0.5,0,0.9-0.3,1-0.8l0.6-3.1c0.4-0.1,0.8-0.3,1.2-0.5l2.6,1.7 c0.2,0.1,0.4,0.2,0.6,0.2c0.3,0,0.5-0.1,0.7-0.3l1.5-1.5c0.3-0.3,0.4-0.9,0.1-1.3l-1.7-2.6c0.2-0.4,0.4-0.8,0.5-1.2l3.1-0.6 c0.5-0.1,0.8-0.5,0.8-1v-2.1C36,36.1,35.6,35.7,35.2,35.6L35.2,35.6z"/>
</svg>
