<?xml version="1.0" encoding="utf-8"?>
<!-- Generator: Adobe Illustrator 22.0.1, SVG Export Plug-In . SVG Version: 6.00 Build 0)  -->
<!DOCTYPE svg PUBLIC "-//W3C//DTD SVG 1.1//EN" "http://www.w3.org/Graphics/SVG/1.1/DTD/svg11.dtd">
<svg version="1.1" id="Layer_1" xmlns="http://www.w3.org/2000/svg" xmlns:xlink="http://www.w3.org/1999/xlink" x="0px" y="0px"
	 viewBox="0 0 100 100" style="enable-background:new 0 0 100 100;" xml:space="preserve">
<path d="M92.7,79.8L92.7,79.8L61.8,28.5V8.7h6.9V2.5h-35v6.3H40v19.7L7.4,79.8c-3.2,4.4-3.3,8.1-3.3,8.5c0,4.9,3.9,8.9,8.7,8.9h74.4 c4.8,0,8.7-4,8.7-8.9C96,87.9,95.9,84.2,92.7,79.8z M54.1,29.9c-1.5,0-3-0.9-3-3c0-2.1,1.5-3,3-3c1.3,0,2.6,0.7,2.9,2.2v1.6 C56.7,29.2,55.4,29.9,54.1,29.9z M44.4,39.2c3,0,6,1.8,6,6s-3,6-6,6c-3,0-6-1.8-6-6S41.4,39.2,44.4,39.2z M43,83.6 c-3.2,0-5.8-2.6-5.8-5.8c0-3.2,2.6-5.8,5.8-5.8c3.2,0,5.8,2.6,5.8,5.8C48.8,80.9,46.2,83.6,43,83.6z M52.7,92.3 c-2.1,0-3.9-1.7-3.9-3.9c0-2.1,1.7-3.9,3.9-3.9c2.1,0,3.9,1.7,3.9,3.9C56.5,90.5,54.8,92.3,52.7,92.3z M56.5,72.9 c-4.3,0-7.7-3.4-7.7-7.7c0-4.3,3.4-7.7,7.7-7.7c4.3,0,7.7,3.4,7.7,7.7S60.8,72.9,56.5,72.9z M67.5,63.1C66.5,57.9,62,54,56.5,54 c-5.5,0-10,3.9-10.9,9.1H23.7l11.7-18.3c0,0.1,0,0.2,0,0.4c0,5.9,4.5,9,9,9c4.5,0,9-3.1,9-9s-4.5-9-9-9c-1.4,0-2.8,0.3-4,0.9 l4.6-7.2V18.5c0.7,0.5,1.6,0.8,2.5,0.8c2,0,4-1.4,4-4s-2-4-4-4c-0.9,0-1.8,0.3-2.5,0.8V8.7H57v13.5c-0.9-0.5-1.9-0.8-2.9-0.8 c-2.7,0-5.5,1.9-5.5,5.5c0,3.6,2.8,5.5,5.5,5.5c1.3,0,2.7-0.4,3.7-1.3l19.3,32H67.5z M45.4,15.3c0-1.5,1.1-2,2-2 c0.5,0,1,0.2,1.4,0.5c0.4,0.4,0.6,0.9,0.6,1.5c0,1.5-1.1,2-2,2C46.5,17.4,45.4,16.8,45.4,15.3z"/>
</svg>
