<?xml version="1.0" encoding="utf-8"?>
<!-- Generator: Adobe Illustrator 22.0.1, SVG Export Plug-In . SVG Version: 6.00 Build 0)  -->
<!DOCTYPE svg PUBLIC "-//W3C//DTD SVG 1.1//EN" "http://www.w3.org/Graphics/SVG/1.1/DTD/svg11.dtd">
<svg version="1.1" id="Layer_1" xmlns="http://www.w3.org/2000/svg" xmlns:xlink="http://www.w3.org/1999/xlink" x="0px" y="0px"
	 viewBox="0 0 48 48" style="enable-background:new 0 0 48 48;" xml:space="preserve">
<style type="text/css">
	.st0{fill:#FF675D;}
</style>
<path class="st0" d="M35.7,22.5h-8l5.7-5.7c0.6-0.6,0.6-1.6,0-2.2c-0.6-0.6-1.6-0.6-2.2,0l-5.7,5.7v-8c0-0.8-0.7-1.5-1.5-1.5
	s-1.5,0.7-1.5,1.5v8l-5.7-5.7c-0.6-0.6-1.6-0.6-2.2,0c-0.6,0.6-0.6,1.6,0,2.2l5.7,5.7h-8c-0.8,0-1.5,0.7-1.5,1.5s0.7,1.5,1.5,1.5h8
	l-5.7,5.7c-0.6,0.6-0.6,1.6,0,2.2c0.3,0.3,0.7,0.4,1.1,0.4s0.8-0.2,1.1-0.4l5.6-5.7v8c0,0.8,0.7,1.5,1.5,1.5s1.5-0.7,1.5-1.5v-8
	l5.7,5.7c0.3,0.3,0.7,0.4,1.1,0.4c0.4,0,0.8-0.2,1.1-0.4c0.6-0.6,0.6-1.6,0-2.2l-5.7-5.7h8c0.8,0,1.5-0.7,1.5-1.5
	C37.2,23.2,36.5,22.5,35.7,22.5z"/>
</svg>
